<svg viewBox="0 0 1024 1024" xmlns="http://www.w3.org/2000/svg"><path d="M71.327 528.814967l289.705148 295.703769c9.380648 9.624195 24.707728 9.624195 34.138518 0 9.381671-9.576099 9.381671-25.222451 0-34.848693L146.677129 536.058952l786.690176 0c13.3214 0 24.142863-11.048637 24.142863-24.642237 0-13.597693-10.821463-24.645306-24.142863-24.645306L146.677129 486.771409l248.494561-253.632581c9.381671-9.603729 9.381671-25.248034 0-34.847669-4.76349-4.836145-10.939143-7.194866-17.116843-7.194866-6.1777 0-12.355399 2.405793-17.116843 7.194866L71.233879 494.01437c-9.383718 9.602705-9.383718 25.244964 0 34.849716L71.327 528.814967z" fill="#adb5bd"></path></svg>