<svg viewBox="0 0 1024 1024" xmlns="http://www.w3.org/2000/svg"><path d="M950.378747 494.018463 660.673599 198.314695c-9.380648-9.624195-24.707728-9.624195-34.138518 0-9.381671 9.576099-9.381671 25.222451 0 34.848693l248.494561 253.612115L88.338443 486.775502c-13.3214 0-24.142863 11.047614-24.142863 24.641213 0 13.597693 10.821463 24.645306 24.142863 24.645306l786.690176 0L626.535081 789.694603c-9.381671 9.603729-9.381671 25.248034 0 34.847669 4.76349 4.836145 10.939143 7.194866 17.116843 7.194866 6.1777 0 12.355399-2.405793 17.116843-7.194866l289.704125-295.723212c9.383718-9.602705 9.383718-25.244964 0-34.849716L950.378747 494.018463z" fill="#adb5bd"></path></svg>